<svg xmlns="http://www.w3.org/2000/svg" viewBox="0 0 400 100">
<polygon points="0,100 0,93 32,91 32,98" fill="#3d4654"/>
<polygon points="0,93 6,89 36,87 32,91" fill="#9aa8bd"/>
<rect x="2" y="93" width="8" height="7" rx="2" fill="#141024"/>
<polygon points="368,98 368,91 400,93 400,100" fill="#3d4654"/>
<polygon points="364,87 394,89 400,93 368,91" fill="#6e7a8f"/>
<rect x="390" y="93" width="8" height="7" rx="2" fill="#141024"/>
<rect x="16" y="89" width="368" height="6" fill="#3d4654"/>
<rect x="16" y="87" width="368" height="2" fill="#9aa8bd"/>
<rect x="12" y="16" width="10" height="73" fill="#6e7a8f"/>
<rect x="18" y="16" width="4" height="73" fill="#3d4654"/>
<rect x="378" y="16" width="10" height="73" fill="#6e7a8f"/>
<rect x="384" y="16" width="4" height="73" fill="#3d4654"/>
<rect x="20" y="2" width="360" height="78" rx="3" fill="#3d4654"/>
<rect x="20" y="2" width="358" height="76" rx="3" fill="#6e7a8f"/>
<polygon points="20,2 378,2 374,5 23,5 23,76 20,78" fill="#9aa8bd"/>
<rect x="26" y="7" width="348" height="68" fill="#2a2438"/>
<rect x="27" y="8" width="346" height="66" fill="#9aa8bd"/>
<rect x="30" y="76" width="340" height="7" fill="#3d4654"/>
<rect x="30" y="78" width="340" height="5" fill="#6e7a8f"/>
<rect x="30" y="77" width="340" height="1" fill="#9aa8bd"/>
<polygon points="45,22 120,22 120,25 45,25" fill="#4a5d8f"/>
<rect x="80" y="75" width="28" height="3" rx="1" fill="#7d4a52"/>
<rect x="80" y="75" width="28" height="3" rx="1" fill="#6b7fb5"/>
<rect x="260" y="72" width="36" height="6" rx="1" fill="#141024"/>
</svg>
