<svg xmlns="http://www.w3.org/2000/svg" viewBox="0 0 50 100">
<ellipse cx="25" cy="97" rx="25" ry="3" fill="#141024" opacity="0.5"/>
<polygon points="0,90 25,92 25,97 0,95" fill="#5d4e94"/>
<polygon points="25,92 50,90 50,95 25,97" fill="#251f3d"/>
<polygon points="0,90 25,87 50,90 25,92" fill="#7362b3"/>
<polygon points="5,84 25,84 25,88 3,89" fill="#483c73"/>
<polygon points="25,84 45,84 47,89 25,88" fill="#1d1833"/>
<rect x="9" y="80" width="16" height="4" rx="1" fill="#7362b3"/>
<rect x="25" y="80" width="16" height="4" rx="1" fill="#342b54"/>
<rect x="12" y="21" width="6" height="59" fill="#8c7ae6"/>
<rect x="18" y="21" width="7" height="59" fill="#5d4e94"/>
<rect x="25" y="21" width="7" height="59" fill="#342b54"/>
<rect x="32" y="21" width="6" height="59" fill="#1d1833"/>
<rect x="9" y="18" width="16" height="3" rx="1" fill="#7362b3"/>
<rect x="25" y="18" width="16" height="3" rx="1" fill="#342b54"/>
<polygon points="3,8 25,8 25,18 9,18" fill="#5d4e94"/>
<polygon points="25,8 47,8 41,18 25,18" fill="#251f3d"/>
<circle cx="7" cy="12" r="5" fill="#8c7ae6"/>
<circle cx="7" cy="12" r="2.5" fill="#342b54"/>
<circle cx="43" cy="12" r="5" fill="#483c73"/>
<circle cx="43" cy="12" r="2.5" fill="#141024"/>
<polygon points="0,3 25,5 25,9 0,7" fill="#7362b3"/>
<polygon points="25,5 50,3 50,7 25,9" fill="#342b54"/>
<polygon points="0,3 25,0 50,3 25,5" fill="#8c7ae6"/>
</svg>
