<svg xmlns="http://www.w3.org/2000/svg" viewBox="0 0 33 100">
<rect x="0" y="8" width="33" height="92" fill="#4a3520"/>
<rect x="3" y="11" width="27" height="82" fill="#1d1833"/>
<rect x="0" y="11" width="3" height="84" fill="#8a6a3a"/>
<rect x="30" y="11" width="3" height="84" fill="#4a3520"/>
<polygon points="0,8 33,8 30,11 3,11" fill="#8a6a3a"/>
<rect x="0" y="11" width="33" height="3" fill="#6b4f2a"/>
<polygon points="3,37 30,37 30,39 3,39" fill="#8a6a3a"/>
<rect x="3" y="39" width="27" height="3" fill="#6b4f2a"/>
<polygon points="3,64 30,64 30,66 3,66" fill="#8a6a3a"/>
<rect x="3" y="66" width="27" height="3" fill="#6b4f2a"/>
<polygon points="3,91 30,91 30,93 3,93" fill="#8a6a3a"/>
<rect x="0" y="93" width="33" height="3" fill="#6b4f2a"/>
<polygon points="0,95 6,95 6,100 0,100" fill="#8a6a3a"/>
<polygon points="27,95 33,95 33,100 27,100" fill="#4a3520"/>
<polygon points="6,97 27,97 25,100 8,100" fill="#141024"/>
<rect x="4" y="17" width="4" height="20" fill="#7d4a52"/>
<rect x="9" y="15" width="5" height="22" fill="#6b7fb5"/>
<rect x="15" y="20" width="4" height="17" fill="#5c9152"/>
<circle cx="22" cy="27" r="4" fill="#3f6b3a"/>
<circle cx="21" cy="26" r="3" fill="#5c9152"/>
<rect x="4" y="60" width="10" height="4" fill="#4a5d8f"/>
<rect x="5" y="56" width="8" height="4" fill="#7d4a52"/>
<rect x="17" y="47" width="5" height="17" fill="#d9c47a"/>
<rect x="4" y="73" width="6" height="18" fill="#6b7fb5"/>
</svg>
